<svg width="16" height="16" viewBox="0 0 16 16" fill="none" xmlns="http://www.w3.org/2000/svg">
<g clip-path="url(#clip0_0_93)">
<path d="M15.7267 2.31669C15.5569 1.84979 15.2868 1.42578 14.9355 1.07448C14.5842 0.723184 14.1602 0.453142 13.6933 0.283357C12.82 0.00335695 12.0267 0.00335693 10.4133 0.00335693H5.57333C3.97333 0.00335693 3.16667 0.00335693 2.30667 0.270024C1.83909 0.440516 1.41465 0.711579 1.06331 1.06407C0.711967 1.41657 0.442294 1.84189 0.273333 2.31002C0 3.17669 0 3.97669 0 5.57669V10.4234C0 12.03 0 12.8234 0.266667 13.69C0.436452 14.1569 0.706494 14.5809 1.05779 14.9322C1.40909 15.2835 1.8331 15.5536 2.3 15.7234C3.16667 15.9967 3.96667 15.9967 5.56667 15.9967H10.42C12.0267 15.9967 12.8267 15.9967 13.6867 15.73C14.1555 15.5604 14.5812 15.2897 14.9338 14.9371C15.2863 14.5846 15.557 14.1588 15.7267 13.69C16 12.8234 16 12.0234 16 10.4234V5.59002C16 3.98336 16 3.18336 15.7267 2.31669ZM11.6133 5.40336L10.9933 6.02336C10.9329 6.07956 10.8538 6.11135 10.7713 6.11258C10.6888 6.11381 10.6087 6.0844 10.5467 6.03002C9.94623 5.52293 9.18592 5.24431 8.4 5.24336C7.75333 5.24336 7.10667 5.45669 7.10667 6.05002C7.10667 6.65002 7.8 6.85002 8.6 7.15002C10 7.61669 11.16 8.20336 11.16 9.57669C11.16 11.07 10 12.0967 8.10667 12.21L7.93333 13.01C7.91801 13.0835 7.87782 13.1495 7.81954 13.1969C7.76125 13.2442 7.68843 13.2701 7.61333 13.27H6.42L6.36 13.2634C6.27458 13.2442 6.20013 13.1922 6.15273 13.1186C6.10533 13.045 6.08879 12.9557 6.10667 12.87L6.29333 12.0234C5.57481 11.8432 4.91403 11.483 4.37333 10.9767V10.97C4.3435 10.9403 4.31983 10.905 4.30368 10.8661C4.28753 10.8272 4.27921 10.7855 4.27921 10.7434C4.27921 10.7012 4.28753 10.6595 4.30368 10.6206C4.31983 10.5817 4.3435 10.5464 4.37333 10.5167L5.04 9.87002C5.10054 9.81331 5.18038 9.78175 5.26333 9.78175C5.34628 9.78175 5.42613 9.81331 5.48667 9.87002C6.09333 10.4434 6.90667 10.7634 7.74667 10.75C8.61333 10.75 9.19333 10.3834 9.19333 9.80336C9.19333 9.22336 8.60667 9.07002 7.5 8.65669C6.32667 8.23669 5.21333 7.64336 5.21333 6.25669C5.21333 4.64336 6.55333 3.85669 8.14 3.78336L8.30667 2.96336C8.32217 2.89048 8.36262 2.8253 8.42104 2.77905C8.47945 2.73281 8.55218 2.70839 8.62667 2.71002H9.81333L9.88 2.71669C10.0533 2.75669 10.1667 2.92336 10.1267 3.09669L9.94667 4.01002C10.5467 4.21002 11.1133 4.52336 11.6 4.93669L11.6133 4.95002C11.74 5.08336 11.74 5.28336 11.6133 5.40336Z" fill="#B5B6C4"/>
</g>
<defs>
<clipPath id="clip0_0_93">
<rect width="16" height="16" fill="white"/>
</clipPath>
</defs>
</svg>
