<svg width="16" height="16" viewBox="0 0 16 16" fill="none" xmlns="http://www.w3.org/2000/svg">
<path d="M9.03933 16H7.14533C7.05993 16 6.97803 15.9661 6.91765 15.9057C6.85726 15.8453 6.82333 15.7634 6.82333 15.678V13.8347H3.75867C3.64096 13.8345 3.52813 13.7877 3.44491 13.7044C3.36168 13.6212 3.31484 13.5084 3.31467 13.3907V11.9013C3.31473 11.8018 3.34805 11.7051 3.40933 11.6267L8.83533 4.70533H4.002C3.88407 4.70533 3.77096 4.65848 3.68757 4.57509C3.60418 4.4917 3.55733 4.3786 3.55733 4.26067V2.60933C3.55733 2.36467 3.75667 2.16533 4.00133 2.16533H6.82133V0.322C6.82133 0.144667 6.966 0 7.14333 0H9.03733C9.21467 0 9.35933 0.144667 9.35933 0.322V2.16533H12.2413C12.486 2.16533 12.6853 2.36467 12.6853 2.60933V4.034C12.6852 4.13301 12.6521 4.22916 12.5913 4.30733L7.13133 11.2947H12.2413C12.486 11.2947 12.6853 11.494 12.6853 11.7387V13.39C12.6853 13.5078 12.6386 13.6208 12.5553 13.7042C12.4721 13.7876 12.3592 13.8345 12.2413 13.8347H9.36133V15.678C9.36133 15.7634 9.32741 15.8453 9.26702 15.9057C9.20664 15.9661 9.12473 16 9.03933 16Z" fill="#B5B6C4"/>
</svg>
