<svg width="51" height="50" viewBox="0 0 51 50" fill="none" xmlns="http://www.w3.org/2000/svg">
<path d="M25.4327 4.78638C13.9894 4.78638 4.71277 13.8811 4.71277 25.1C4.71277 36.319 13.9894 45.4137 25.4327 45.4137C36.876 45.4137 46.1527 36.319 46.1527 25.1C46.1527 13.8811 36.876 4.78638 25.4327 4.78638ZM38.2062 29.9432C38.2062 33.8211 34.9593 37 31.0082 37H20.9241C16.9687 37 13.7262 33.8168 13.7262 29.9432V20.0569C13.7262 16.179 16.9731 13 20.9241 13H31.0082C34.9636 13 38.2062 16.1833 38.2062 20.0569V29.9432Z" fill="#9556FF"/>
<path d="M25.966 20.6367C23.4928 20.6367 21.5151 22.5756 21.5151 25.0004C21.5151 27.4251 23.4928 29.364 25.966 29.364C28.4393 29.364 30.417 27.4251 30.417 25.0004C30.417 22.5756 28.4393 20.6367 25.966 20.6367Z" fill="#9556FF"/>
<path d="M31.0082 15.1819H20.9241C18.1727 15.1819 15.9516 17.3594 15.9516 20.0569V29.9432C15.9516 32.6407 18.1727 34.8182 20.9241 34.8182H31.0082C33.7596 34.8182 35.9807 32.6407 35.9807 29.9432V20.0569C35.9807 17.3594 33.7596 15.1819 31.0082 15.1819ZM25.9661 31.5455C22.2933 31.5455 19.2898 28.6009 19.2898 25.0001C19.2898 21.3992 22.2933 18.4546 25.9661 18.4546C29.639 18.4546 32.6425 21.3992 32.6425 25.0001C32.6425 28.6009 29.639 31.5455 25.9661 31.5455ZM32.5382 19.5455C31.9775 19.5455 31.5298 19.1066 31.5298 18.5569C31.5298 18.0072 31.9775 17.5682 32.5382 17.5682C33.0989 17.5682 33.5466 18.0072 33.5466 18.5569C33.5466 19.1066 33.0989 19.5455 32.5382 19.5455Z" fill="#9556FF"/>
</svg>
