<svg width="272" height="33" viewBox="0 0 272 33" fill="none" xmlns="http://www.w3.org/2000/svg">
<path d="M45.6597 2.86349C43.966 2.86349 42.6638 4.2717 42.6638 5.96403V7.23636H47.6295L47.6418 26.3172H52.1583L52.146 7.23224H57.1117V2.85938L45.6597 2.86761V2.86349Z" fill="white"/>
<path d="M67.9332 26.3094H60.0045C58.315 26.3094 57.1158 25.0412 57.1158 23.353V7.22852H61.5911V21.5947H66.3507V7.22852H70.826V23.353C70.826 25.0453 69.6269 26.3094 67.9373 26.3094H67.9332Z" fill="white"/>
<path d="M82.8385 26.3094V18.7371H78.6104V26.3094H74.0651V7.22852H84.0377C85.7314 7.22852 87.1407 8.52967 87.1407 10.222V14.4466C87.1407 16.1019 86.3289 17.086 85.0267 17.1231C86.436 17.1931 87.2478 18.5683 87.2478 20.2236V26.3135H82.8426L82.8385 26.3094ZM82.7355 11.309H78.5074V14.7266H82.7355V11.309Z" fill="white"/>
<path d="M99.4746 26.3094V11.4861H95.3166V26.3094H90.8784V7.22852H100.851C102.541 7.22852 103.95 8.52967 103.95 10.222V26.3135H99.4746V26.3094Z" fill="white"/>
<path d="M107.51 26.3094V7.22852H111.949V26.3135H107.51V26.3094Z" fill="white"/>
<path d="M125.725 7.19141H115.752V31.5922H117.199C118.892 31.5922 120.298 30.2869 120.298 28.5987V26.2764H126.611C127.979 26.2764 128.824 25.3993 128.824 23.707V10.189C128.824 8.49668 127.418 7.19552 125.725 7.19552V7.19141ZM124.348 22.3317H120.199V11.449H124.348V22.3317Z" fill="white"/>
<path d="M147.442 26.2963H140.342C138.648 26.2963 137.234 24.991 137.234 23.2987V10.0978C137.234 8.40544 138.541 7.17017 140.234 7.17017H147.442C149.136 7.17017 150.442 8.40544 150.442 10.0978V14.6847H145.991V11.4401H141.718V22.0264H145.991V18.5347H150.442V23.3687C150.442 25.061 149.136 26.2963 147.442 26.2963Z" fill="white"/>
<path d="M156.306 26.2963C154.612 26.2963 153.199 24.991 153.199 23.2987V16.2041C153.199 14.5118 154.048 13.6265 155.424 13.6265H162.31V11.3659H153.974L153.941 7.16602H164.255C165.739 7.16602 166.868 8.04718 166.868 9.74362V26.2963H156.306ZM162.413 17.4723H157.682V22.0593H162.413V17.4723Z" fill="white"/>
<path d="M179.511 14.5818C181.806 14.5818 183.15 15.7471 183.15 18.0406V26.3004H179.123V18.6088H174.603V26.3004H170.045V7.17017H174.603V14.5818H175.027L178.736 7.17017H183.257L179.511 14.5818Z" fill="white"/>
<path d="M197.771 19.5558H190.885V22.2364H199.221V26.2963H188.944C187.46 26.2963 186.331 25.4152 186.331 23.7187V7.17017H196.893C198.587 7.17017 200 8.47544 200 10.1719V16.9824C200 18.6747 199.151 19.56 197.775 19.56L197.771 19.5558ZM195.508 11.3001H190.777V15.71H195.508V11.3001Z" fill="white"/>
<path d="M33.7461 11.9872C33.7461 12.2549 33.5565 12.5184 33.1898 12.7119L28.6856 14.6595L28.665 9.24492L28.5043 9.32315C28.5043 9.32315 28.5373 9.3108 28.5538 9.30256L33.0826 7.33848C33.4453 7.17789 33.7296 6.86907 33.7296 6.58496L33.7502 11.9872H33.7461Z" fill="white"/>
<path d="M24.3834 16.5411L19.3271 18.7275L18.8367 18.9416C17.9012 19.2834 16.1869 19.164 15.7213 18.991C13.224 18.0769 2.8187 14.2682 0.741763 13.5146C0.27198 13.3458 0 12.9546 0 12.5676V7.81591V7.80767V7.14062C0 7.23533 0.0164836 7.33415 0.0494508 7.42886C0.148353 7.70885 0.391486 7.96002 0.741763 8.08767C1.70193 8.43766 15.7213 13.564 15.7213 13.564C16.2116 13.7411 18.0661 13.8646 18.9644 13.4611C20.0235 12.9876 21.0908 12.5223 22.1911 12.0405C22.8958 11.7317 24.3587 11.1017 24.3587 11.1017L24.3834 16.5411Z" fill="white"/>
<path d="M33.7461 18.9096C33.7461 19.1772 33.5566 19.4408 33.1898 19.6343L28.6856 21.5819L28.665 16.1673L33.0827 14.2567C33.4453 14.0961 33.6637 13.8697 33.7296 13.6309L33.7502 18.9096H33.7461Z" fill="white"/>
<path d="M24.3834 23.4637L19.3271 25.6501L18.8367 25.8642C17.9012 26.206 16.1869 26.0866 15.7213 25.9136C13.224 24.9995 2.8187 21.1908 0.741763 20.4372C0.27198 20.2684 0 19.8773 0 19.4902V14.7385V14.7303V14.0632C0 14.1579 0.0164836 14.2568 0.0494508 14.3515C0.148353 14.6315 0.391486 14.8826 0.741763 15.0103C1.70193 15.3603 15.7213 20.4867 15.7213 20.4867C16.2116 20.6637 18.0661 20.7872 18.9644 20.3837C19.9452 19.9431 24.3587 18.0285 24.3587 18.0285L24.3834 23.4678V23.4637Z" fill="white"/>
<path d="M33.7461 25.8305C33.7461 26.0981 33.5566 26.3617 33.1898 26.5552L28.6856 28.5028L28.665 23.0882L33.0827 21.1776C33.4453 21.017 33.6637 20.7906 33.7296 20.5518L33.7502 25.1429V25.8305H33.7461Z" fill="white"/>
<path d="M24.3834 30.3799L19.3271 32.5664L18.8367 32.7805C17.9012 33.1222 16.1869 33.0028 15.7213 32.8299C13.224 31.9158 2.8187 28.107 0.741763 27.3535C0.27198 27.1847 0 26.7935 0 26.4065V21.6548V21.6465V20.9795C0 21.0742 0.0164836 21.173 0.0494508 21.2677C0.148353 21.5477 0.391486 21.7989 0.741763 21.9265C1.70193 22.2765 15.7213 27.4029 15.7213 27.4029C16.2117 27.58 18.0661 27.7035 18.9644 27.3C20.0235 26.8265 23.7653 25.2041 24.5853 24.8459L24.3587 24.9653L24.3793 30.3799H24.3834Z" fill="white"/>
<path d="M33.7008 6.71287C33.6348 6.95169 33.4206 7.17816 33.0579 7.33874L28.6444 9.2493L21.9892 6.77052L24.4658 5.6876L18.643 3.53822L8.80226 7.76697L14.6004 9.92458L17.6663 8.62755L24.3422 11.1146C23.7447 11.3699 20.007 12.9922 18.9479 13.4657C18.0496 13.8692 16.1952 13.7498 15.7089 13.5686C15.7089 13.5686 1.69781 8.43814 0.737642 8.08814C0.387365 7.96462 0.148353 7.71344 0.0494508 7.43345C0.0164836 7.33875 0 7.23992 0 7.14522C0 6.85699 0.152474 6.56876 0.486267 6.37523C0.486267 6.37523 13.8133 0.585916 13.8751 0.561211C15.1649 0.00533774 16.4424 -0.258188 18.1856 0.342979L32.8189 5.69171L32.8848 5.71642L32.9673 5.74936C33.3876 5.91406 33.6266 6.15288 33.6967 6.40406C33.7255 6.50699 33.7255 6.60993 33.6967 6.71287H33.7008Z" fill="white"/>
</svg>
