<svg width="50" height="50" viewBox="0 0 50 50" fill="none" xmlns="http://www.w3.org/2000/svg">
<g clip-path="url(#clip0_0_34)">
<path d="M15.6738 15L29.7838 35H32.8538L18.7438 15H15.6738Z" fill="#9556FF"/>
<path d="M23.7239 4.86035C12.5439 4.86035 3.48389 13.9204 3.48389 25.1004C3.48389 36.2804 12.5439 45.3404 23.7239 45.3404C34.9039 45.3404 43.9639 36.2804 43.9639 25.1004C43.9639 13.9204 34.9039 4.86035 23.7239 4.86035ZM28.7439 37.0004L22.2039 27.7104L14.2639 37.0004H11.7639L21.0739 26.1004L11.8539 13.0004H19.7939L25.4339 21.0104L32.2739 13.0004H34.7739L26.5639 22.6104L36.6839 37.0004H28.7439Z" fill="#9556FF"/>
</g>
<defs>
<clipPath id="clip0_0_34">
<rect width="50" height="50" fill="white"/>
</clipPath>
</defs>
</svg>
